<mxfile host="app.diagrams.net" modified="2024-04-24T18:32:59.913Z" agent="Mozilla/5.0 (Macintosh; Intel Mac OS X 10_15_7) AppleWebKit/537.36 (KHTML, like Gecko) Chrome/124.0.0.0 Safari/537.36" version="24.3.0" etag="HTIwuzPedRzDZBjynnmg" type="github">
  <diagram name="Page-1" id="JG63-7_h8RclMrlpHAG0">
    <mxGraphModel>
      <root>
        <mxCell id="0" />
        <mxCell id="1" parent="0" />
      </root>
    </mxGraphModel>
  </diagram>
</mxfile>
